<?xml version="1.0" encoding="UTF-8"?>
<!DOCTYPE svg PUBLIC "-//W3C//DTD SVG 1.1//EN" "http://www.w3.org/Graphics/SVG/1.1/DTD/svg11.dtd">
<!-- Creator: CorelDRAW X7 -->
<svg xmlns="http://www.w3.org/2000/svg" xml:space="preserve" width="124.46mm" height="26.9238mm" version="1.1" style="shape-rendering:geometricPrecision; text-rendering:geometricPrecision; image-rendering:optimizeQuality; fill-rule:evenodd; clip-rule:evenodd"
viewBox="0 0 12446 2692"
 xmlns:xlink="http://www.w3.org/1999/xlink">
 <defs>
  <style type="text/css">
   <![CDATA[
    .fil3 {fill:#00C853}
    .fil5 {fill:#2196F3}
    .fil0 {fill:#2962FF}
    .fil2 {fill:#D50000}
    .fil4 {fill:#FF5722}
    .fil1 {fill:#FFD600}
   ]]>
  </style>
 </defs>
 <g id="Layer_x0020_1">
  <metadata id="CorelCorpID_0Corel-Layer"/>
  <path class="fil0" d="M1 2485l0 -377 0 -1900c0,-114 93,-207 206,-207l376 0c113,0 206,93 206,207l0 1694 745 0c113,0 206,93 206,206l0 377c0,113 -93,206 -206,206l-951 0 -376 0c-113,0 -206,-93 -206,-206z"/>
  <rect class="fil1" x="950" y="951" width="790" height="789" rx="206" ry="206"/>
  <rect class="fil2" x="950" y="1" width="790" height="789" rx="206" ry="206"/>
  <rect class="fil0" x="1901" y="1901" width="790" height="789" rx="206" ry="206"/>
  <rect class="fil3" x="1901" y="951" width="790" height="789" rx="206" ry="206"/>
  <rect class="fil4" x="1901" y="1" width="790" height="789" rx="206" ry="206"/>
  <path class="fil5" d="M1740 2297l0 188c0,113 -93,206 -206,206l-950 0 -377 0c-113,0 -206,-93 -206,-206l0 -377 0 -1 0 -1899c0,-114 93,-207 206,-207l187 0 1 207 0 1897c0,96 93,192 186,192l953 0 206 0z"/>
  <path class="fil0" d="M3661 1313l112 0 -54 -497 -58 497zm-297 434l157 -1054 393 0 161 1054 -251 0 -29 -258 -156 0 -29 258 -246 0zm1019 -517l0 292c0,31 4,51 11,60 8,9 22,14 43,14 21,0 35,-5 42,-14 7,-9 10,-29 10,-60l0 -292c0,-30 -3,-50 -10,-60 -7,-9 -21,-14 -42,-14 -21,0 -35,5 -43,15 -7,9 -11,29 -11,59zm-215 789l0 -1016 205 0 0 90c19,-35 43,-62 71,-78 28,-17 62,-25 103,-25 60,0 102,18 127,54 25,36 38,99 38,188l0 287c0,90 -12,153 -36,188 -24,36 -66,54 -124,54 -39,0 -73,-9 -100,-25 -27,-16 -50,-42 -69,-77l0 360 -215 0zm891 -789l0 292c0,31 4,51 11,60 7,9 22,14 43,14 21,0 35,-5 42,-14 7,-9 10,-29 10,-60l0 -292c0,-30 -3,-50 -10,-60 -7,-9 -21,-14 -42,-14 -21,0 -36,5 -43,15 -7,9 -11,29 -11,59zm-215 789l0 -1016 205 0 0 90c19,-35 43,-62 70,-78 28,-17 63,-25 103,-25 61,0 103,18 128,54 25,36 38,99 38,188l0 287c0,90 -12,153 -36,188 -25,36 -66,54 -124,54 -40,0 -73,-9 -100,-25 -27,-16 -50,-42 -69,-77l0 360 -215 0z"/>
  <path class="fil0" d="M5521 1747l0 -1054 245 0 0 865 233 0 0 189 -478 0zm548 -901l0 -171 215 0 0 171 -215 0zm215 901l-215 0 0 -744 215 0 0 744zm118 -231l195 0c0,40 4,66 12,78 8,12 23,18 47,18 20,0 34,-4 43,-13 9,-9 14,-22 14,-40l0 -47c0,-33 -36,-57 -109,-70 -27,-5 -48,-9 -64,-13 -56,-13 -92,-29 -109,-49 -17,-19 -25,-51 -25,-96l0 -88c0,-73 16,-126 49,-158 33,-32 86,-48 161,-48l98 0c70,0 120,13 148,39 28,25 43,72 44,139l0 53 -190 0 0 -41c0,-19 -4,-32 -12,-39 -8,-7 -23,-10 -45,-10 -19,0 -34,4 -44,12 -10,8 -15,20 -15,34l0 41c0,28 27,48 83,59 30,6 56,12 75,17 60,10 101,27 124,51 23,24 34,62 34,113l0 89c0,81 -17,136 -52,167 -35,31 -98,47 -192,47l-56 0c-82,0 -138,-14 -168,-41 -31,-26 -46,-76 -46,-147l0 -57zm654 -350l-66 0 0 -163 66 0 0 -198 216 0 0 198 122 0 0 163 -122 0 0 347c0,28 7,49 20,62 13,13 34,20 62,20 7,0 13,0 16,-1 4,0 8,0 11,-1l1 160c-23,3 -43,6 -62,8 -20,1 -37,2 -53,2 -82,0 -137,-15 -167,-45 -29,-30 -44,-91 -44,-183l0 -369z"/>
  <path class="fil0" d="M7514 1747l0 -1054 355 0 142 832 148 -832 351 0 0 1054 -223 0 15 -890 -163 890 -272 0 -159 -890 18 890 -212 0zm1442 -198l0 -79c0,-16 -5,-29 -14,-38 -9,-8 -22,-13 -39,-13 -16,0 -29,5 -38,13 -9,9 -14,22 -14,38l0 79c0,17 5,30 14,39 9,8 22,13 38,13 17,0 30,-5 39,-13 9,-9 14,-22 14,-39zm11 198l0 -59c-16,26 -36,45 -61,56 -25,11 -57,17 -99,17 -62,0 -106,-15 -131,-45 -25,-29 -37,-81 -37,-157l0 -90c0,-62 14,-108 43,-138 28,-30 72,-44 132,-44 27,0 52,3 76,11 24,7 46,18 66,32l0 -110c0,-30 -4,-50 -11,-60 -6,-10 -20,-14 -42,-14 -20,0 -34,4 -40,14 -7,10 -10,30 -10,60l-191 0 0 -54c0,-68 17,-114 50,-139 33,-25 101,-37 205,-37 103,0 171,12 204,37 34,25 50,71 50,139l0 581 -204 0zm339 0l0 -744 201 0 0 96c22,-38 47,-66 75,-84 28,-16 63,-25 105,-25 58,0 99,16 122,48 23,32 35,91 35,178l0 531 -215 0 0 -519c0,-26 -4,-44 -12,-54 -8,-9 -22,-14 -42,-14 -20,0 -34,5 -42,14 -8,10 -12,28 -12,54l0 519 -215 0zm970 -198l0 -79c0,-16 -5,-29 -14,-38 -10,-8 -22,-13 -39,-13 -17,0 -29,5 -38,13 -9,9 -14,22 -14,38l0 79c0,17 5,30 14,39 9,8 21,13 38,13 17,0 29,-5 39,-13 9,-9 14,-22 14,-39zm11 198l0 -59c-16,26 -37,45 -61,56 -25,11 -58,17 -99,17 -62,0 -106,-15 -131,-45 -25,-29 -37,-81 -37,-157l0 -90c0,-62 14,-108 42,-138 29,-30 73,-44 133,-44 26,0 52,3 76,11 24,7 46,18 66,32l0 -110c0,-30 -4,-50 -11,-60 -7,-10 -21,-14 -42,-14 -21,0 -34,4 -41,14 -6,10 -10,30 -10,60l-190 0 0 -54c0,-68 16,-114 50,-139 33,-25 101,-37 205,-37 103,0 171,12 204,37 33,25 50,71 50,139l0 581 -204 0zm877 -20c0,113 -18,190 -54,232 -35,41 -99,62 -192,62 -109,0 -182,-15 -220,-44 -37,-30 -56,-83 -56,-161l0 -5 186 0c0,21 4,36 13,44 9,8 24,12 47,12 24,0 40,-5 48,-15 8,-9 13,-29 13,-60l0 -109c-23,24 -47,40 -71,51 -25,10 -55,15 -89,15 -64,0 -108,-17 -133,-52 -25,-35 -38,-98 -38,-190l0 -275c0,-89 13,-152 38,-188 25,-36 68,-54 128,-54 41,0 76,9 104,25 29,17 52,43 70,78l0 -90 206 0 0 724zm-215 -212l0 -285c0,-30 -4,-50 -11,-59 -8,-10 -22,-15 -43,-15 -22,0 -36,5 -43,15 -7,9 -11,29 -11,59l0 285c0,29 4,49 11,59 7,10 21,15 43,15 22,0 36,-5 43,-14 7,-10 11,-30 11,-60zm556 -304l0 71 137 0 0 -71c0,-32 -5,-52 -13,-62 -9,-10 -27,-15 -56,-15 -27,0 -45,5 -54,15 -9,11 -14,31 -14,62zm-221 73c0,-115 19,-192 58,-233 39,-41 114,-61 224,-61 110,0 185,20 224,61 39,41 58,118 58,233l0 145 -343 0 0 93c0,31 4,51 13,60 8,9 26,14 52,14 27,0 45,-5 53,-15 9,-10 13,-29 13,-59l0 -16 212 0 0 50c0,78 -20,132 -60,161 -40,29 -120,44 -240,44 -100,0 -169,-21 -207,-62 -38,-41 -57,-118 -57,-230l0 -185zm680 463l0 -744 201 0 0 82c19,-34 41,-58 66,-73 24,-14 55,-22 91,-22 45,0 77,11 96,34 18,23 28,63 28,118l0 164 -179 0 0 -78c0,-26 -3,-44 -10,-54 -6,-9 -17,-14 -33,-14 -17,0 -28,5 -35,14 -6,9 -9,27 -9,54l0 519 -216 0z"/>
 </g>
</svg>
